# Blender v2.93.6 OBJ File: ''
# www.blender.org
mtllib testOval.mtl
o obj_0
v 0.542650 4.951950 -0.125000
v 0.397050 4.987950 -0.125000
v 0.397050 4.987950 -0.075000
v 0.542650 4.951950 -0.075000
v 1.572900 3.678500 -0.125000
v 1.572900 3.678500 -0.075000
v 1.635800 3.456700 -0.075000
v 1.635800 3.456700 -0.125000
v 0.250000 5.000000 -0.125000
v 0.250000 5.000000 -0.075000
v 1.497200 3.888950 -0.125000
v 1.497200 3.888950 -0.075000
v 0.102950 4.987950 -0.125000
v 0.102950 4.987950 -0.075000
v -0.042650 4.951950 -0.075000
v 0.685450 4.892350 -0.075000
v -0.185450 4.892350 -0.075000
v -0.324050 4.809700 -0.075000
v 0.824050 4.809700 -0.075000
v 0.957100 4.704800 -0.075000
v -0.457100 4.704800 -0.075000
v 1.083350 4.578650 -0.075000
v -0.583350 4.578650 -0.075000
v 1.201600 4.432550 -0.075000
v 1.409500 4.086000 -0.125000
v 1.409500 4.086000 -0.075000
v -0.324050 0.190300 -0.125000
v -0.324050 0.190300 -0.075000
v -0.457100 0.295200 -0.075000
v -0.457100 0.295200 -0.125000
v 1.310650 4.267750 -0.125000
v 1.310650 4.267750 -0.075000
v -0.042650 4.951950 -0.125000
v -0.185450 0.107650 -0.125000
v -0.185450 0.107650 -0.075000
v -0.185450 4.892350 -0.125000
v 1.201600 4.432550 -0.125000
v -0.324050 4.809700 -0.125000
v -0.042650 0.048050 -0.125000
v -0.042650 0.048050 -0.075000
v -0.909500 4.086000 -0.075000
v -0.997200 3.888950 -0.075000
v -1.072900 3.678500 -0.075000
v -1.135800 3.456700 -0.075000
v 1.685400 3.225700 -0.075000
v -1.185400 3.225700 -0.075000
v 1.721200 2.987750 -0.075000
v -1.221200 2.987750 -0.075000
v 1.742800 2.745050 -0.075000
v -0.457100 4.704800 -0.125000
v 1.083350 4.578650 -0.125000
v -0.583350 4.578650 -0.125000
v 0.957100 4.704800 -0.125000
v -0.810650 4.267750 -0.125000
v -0.909500 4.086000 -0.125000
v -0.810650 4.267750 -0.075000
v -0.701600 4.432550 -0.125000
v -0.701600 4.432550 -0.075000
v -0.997200 3.888950 -0.125000
v 0.824050 4.809700 -0.125000
v -1.072900 3.678500 -0.125000
v 0.685450 4.892350 -0.125000
v -1.242800 2.745050 -0.075000
v -1.250000 2.500000 -0.075000
v 1.750000 2.500000 -0.075000
v -1.242800 2.254950 -0.075000
v 1.742800 2.254950 -0.075000
v -1.221200 2.012250 -0.075000
v -1.185400 1.774300 -0.075000
v 1.721200 2.012250 -0.075000
v 1.685400 1.774300 -0.075000
v -1.135800 3.456700 -0.125000
v 1.685400 3.225700 -0.125000
v 1.721200 2.987750 -0.125000
v 1.721200 2.012250 -0.125000
v 1.685400 1.774300 -0.125000
v 1.742800 2.254950 -0.125000
v -1.185400 3.225700 -0.125000
v 1.572900 1.321500 -0.075000
v 1.635800 1.543300 -0.075000
v -1.135800 1.543300 -0.075000
v -1.072900 1.321500 -0.075000
v 0.957100 0.295200 -0.075000
v 1.083350 0.421350 -0.075000
v -0.583350 0.421350 -0.075000
v 1.201600 0.567450 -0.075000
v -0.701600 0.567450 -0.075000
v -0.810650 0.732250 -0.075000
v 1.310650 0.732250 -0.075000
v -0.909500 0.914000 -0.075000
v 1.409500 0.914000 -0.075000
v -0.997200 1.111050 -0.075000
v 1.497200 1.111050 -0.075000
v 1.750000 2.500000 -0.125000
v 1.635800 1.543300 -0.125000
v -1.221200 2.987750 -0.125000
v 1.742800 2.745050 -0.125000
v -1.242800 2.745050 -0.125000
v 0.102950 0.012050 -0.075000
v 0.102950 0.012050 -0.125000
v -1.250000 2.500000 -0.125000
v 0.250000 0.000000 -0.075000
v 0.250000 0.000000 -0.125000
v 0.824050 0.190300 -0.075000
v 0.685450 0.107650 -0.075000
v 0.542650 0.048050 -0.075000
v 0.397050 0.012050 -0.075000
v -1.242800 2.254950 -0.125000
v -1.221200 2.012250 -0.125000
v -1.185400 1.774300 -0.125000
v -1.135800 1.543300 -0.125000
v -1.072900 1.321500 -0.125000
v -0.997200 1.111050 -0.125000
v 0.397050 0.012050 -0.125000
v -0.909500 0.914000 -0.125000
v 0.542650 0.048050 -0.125000
v -0.810650 0.732250 -0.125000
v 0.685450 0.107650 -0.125000
v -0.701600 0.567450 -0.125000
v 0.824050 0.190300 -0.125000
v 0.957100 0.295200 -0.125000
v -0.583350 0.421350 -0.125000
v 1.083350 0.421350 -0.125000
v 1.201600 0.567450 -0.125000
v 1.310650 0.732250 -0.125000
v 1.409500 0.914000 -0.125000
v 1.497200 1.111050 -0.125000
v 1.572900 1.321500 -0.125000
vt 0.000000 0.000000
vt 1.000000 0.000000
vt 1.000000 1.000000
vt 1.000000 0.000000
vt 1.000000 1.000000
vt 0.000000 0.000000
vt 1.000000 0.000000
vt 1.000000 1.000000
vt 1.000000 0.000000
vt 1.000000 1.000000
vt 0.000000 0.000000
vt 1.000000 0.000000
vt 1.000000 1.000000
vt 1.000000 0.000000
vt 0.000000 0.000000
vt 1.000000 0.000000
vt 1.000000 1.000000
vt 1.000000 1.000000
vt 0.000000 0.000000
vt 1.000000 0.000000
vt 1.000000 1.000000
vt 1.000000 0.000000
vt 0.000000 0.000000
vt 0.000000 0.000000
vt 0.000000 0.000000
vt 1.000000 0.000000
vt 0.000000 0.000000
vt 1.000000 0.000000
vt 1.000000 1.000000
vt 0.000000 0.000000
vt 1.000000 0.000000
vt 1.000000 1.000000
vt 0.000000 0.000000
vt 1.000000 0.000000
vt 0.000000 0.000000
vt 1.000000 0.000000
vt 1.000000 1.000000
vt 0.000000 0.000000
vt 1.000000 0.000000
vt 0.000000 0.000000
vt 1.000000 0.000000
vt 1.000000 1.000000
vt 0.000000 0.000000
vt 1.000000 0.000000
vt 1.000000 1.000000
vt 0.000000 0.000000
vt 1.000000 0.000000
vt 1.000000 1.000000
vt 0.000000 0.000000
vt 1.000000 0.000000
vt 1.000000 1.000000
vt 0.000000 0.000000
vt 1.000000 0.000000
vt 1.000000 1.000000
vt 1.000000 1.000000
vt 0.000000 0.000000
vt 1.000000 0.000000
vt 1.000000 1.000000
vt 1.000000 0.000000
vt 1.000000 1.000000
vt 0.000000 0.000000
vt 1.000000 0.000000
vt 1.000000 1.000000
vt 1.000000 1.000000
vt 1.000000 1.000000
vt 0.000000 0.000000
vt 1.000000 0.000000
vt 0.000000 0.000000
vt 1.000000 0.000000
vt 1.000000 1.000000
vt 1.000000 1.000000
vt 0.000000 0.000000
vt 1.000000 0.000000
vt 1.000000 1.000000
vt 0.000000 0.000000
vt 1.000000 0.000000
vt 1.000000 1.000000
vt 1.000000 1.000000
vt 0.000000 0.000000
vt 1.000000 0.000000
vt 0.000000 0.000000
vt 1.000000 0.000000
vt 1.000000 1.000000
vt 1.000000 1.000000
vt 0.000000 0.000000
vt 1.000000 1.000000
vt 0.000000 0.000000
vt 1.000000 0.000000
vt 0.000000 0.000000
vt 1.000000 1.000000
vt 0.000000 0.000000
vt 1.000000 0.000000
vt 0.000000 0.000000
vt 1.000000 1.000000
vt 0.000000 0.000000
vt 1.000000 0.000000
vt 0.000000 0.000000
vt 1.000000 1.000000
vt 0.000000 0.000000
vt 1.000000 0.000000
vt 1.000000 1.000000
vt 0.000000 0.000000
vt 1.000000 0.000000
vt 1.000000 1.000000
vt 0.000000 0.000000
vt 1.000000 0.000000
vt 1.000000 1.000000
vt 0.000000 0.000000
vt 1.000000 0.000000
vt 1.000000 1.000000
vt 0.000000 0.000000
vt 1.000000 0.000000
vt 0.000000 0.000000
vt 1.000000 1.000000
vt 1.000000 1.000000
vt 0.000000 0.000000
vt 1.000000 0.000000
vt 1.000000 0.000000
vt 0.000000 0.000000
vt 1.000000 0.000000
vt 1.000000 0.000000
vt 1.000000 1.000000
vt 0.000000 0.000000
vt 1.000000 0.000000
vt 1.000000 1.000000
vt 1.000000 0.000000
vt 0.000000 0.000000
vt 1.000000 0.000000
vt 0.000000 0.000000
vt 1.000000 0.000000
vt 1.000000 1.000000
vt 0.000000 0.000000
vt 1.000000 0.000000
vt 1.000000 0.000000
vt 0.000000 0.000000
vt 1.000000 0.000000
vt 0.000000 0.000000
vt 1.000000 0.000000
vt 0.000000 0.000000
vt 0.000000 0.000000
vt 0.000000 0.000000
vt 0.000000 0.000000
vt 0.000000 0.000000
vt 0.000000 0.000000
vt 1.000000 0.000000
vt 1.000000 1.000000
vt 0.000000 0.000000
vt 1.000000 0.000000
vt 0.000000 0.000000
vt 1.000000 0.000000
vt 1.000000 1.000000
vt 0.000000 0.000000
vt 1.000000 0.000000
vt 0.000000 0.000000
vt 1.000000 1.000000
vt 0.000000 0.000000
vt 1.000000 0.000000
vt 1.000000 1.000000
vt 0.000000 0.000000
vt 1.000000 1.000000
vt 0.000000 0.000000
vt 1.000000 0.000000
vt 1.000000 1.000000
vt 1.000000 1.000000
vt 0.000000 0.000000
vt 1.000000 0.000000
vt 0.000000 0.000000
vt 1.000000 0.000000
vt 0.000000 0.000000
vt 0.000000 0.000000
vt 1.000000 1.000000
vt 1.000000 0.000000
vt 0.000000 0.000000
vt 1.000000 1.000000
vt 1.000000 0.000000
vt 1.000000 1.000000
vt 0.000000 0.000000
vt 1.000000 1.000000
vt 1.000000 0.000000
vt 0.000000 0.000000
vt 1.000000 0.000000
vt 1.000000 1.000000
vt 1.000000 0.000000
vt 1.000000 1.000000
vt 1.000000 0.000000
vt 0.000000 0.000000
vt 1.000000 0.000000
vt 1.000000 1.000000
vt 0.000000 0.000000
vt 1.000000 0.000000
vt 1.000000 1.000000
vt 0.000000 0.000000
vt 1.000000 0.000000
vt 1.000000 1.000000
vt 0.000000 0.000000
vt 1.000000 0.000000
vt 1.000000 1.000000
vt 0.000000 0.000000
vt 1.000000 0.000000
vt 1.000000 1.000000
vt 0.000000 0.000000
vt 1.000000 0.000000
vt 1.000000 1.000000
vt 0.000000 0.000000
vt 1.000000 0.000000
vt 1.000000 1.000000
vt 0.000000 0.000000
vt 1.000000 0.000000
vt 1.000000 1.000000
vt 0.000000 0.000000
vt 1.000000 0.000000
vt 1.000000 1.000000
vt 0.000000 0.000000
vt 1.000000 0.000000
vt 1.000000 1.000000
vt 0.000000 0.000000
vt 1.000000 0.000000
vt 1.000000 1.000000
vt 0.000000 0.000000
vt 1.000000 0.000000
vt 1.000000 1.000000
vt 0.000000 0.000000
vt 1.000000 0.000000
vt 1.000000 1.000000
vt 1.000000 1.000000
vt 1.000000 0.000000
vt 0.000000 0.000000
vt 1.000000 0.000000
vt 0.000000 0.000000
vt 1.000000 1.000000
vt 1.000000 1.000000
vt 0.000000 0.000000
vt 1.000000 0.000000
vt 1.000000 1.000000
vt 0.000000 0.000000
vt 1.000000 0.000000
vt 1.000000 1.000000
vt 0.000000 0.000000
vt 1.000000 0.000000
vt 1.000000 1.000000
vt 0.000000 0.000000
vt 1.000000 1.000000
vt 0.000000 0.000000
vt 1.000000 0.000000
vt 0.000000 0.000000
vt 1.000000 1.000000
vt 1.000000 0.000000
vt 1.000000 1.000000
vt 0.000000 0.000000
vt 1.000000 1.000000
vt 0.000000 0.000000
vt 0.000000 0.000000
vt 1.000000 0.000000
vt 0.000000 0.000000
vt 1.000000 0.000000
vt 0.000000 0.000000
vt 1.000000 1.000000
vt 0.000000 0.000000
vt 1.000000 0.000000
vt 0.000000 0.000000
vt 1.000000 1.000000
vt 0.000000 0.000000
vt 1.000000 0.000000
vt 1.000000 1.000000
vt 1.000000 1.000000
vt 1.000000 0.000000
vt 0.000000 0.000000
vt 1.000000 1.000000
vt 1.000000 0.000000
vt 0.000000 0.000000
vt 1.000000 0.000000
vt 0.000000 0.000000
vt 1.000000 0.000000
vt 0.000000 0.000000
vt 1.000000 0.000000
vt 1.000000 1.000000
vt 0.000000 0.000000
vt 1.000000 0.000000
vt 0.000000 0.000000
vt 1.000000 0.000000
vt 0.000000 0.000000
vt 1.000000 1.000000
vt 1.000000 0.000000
vt 0.000000 0.000000
vt 1.000000 0.000000
vt 0.000000 0.000000
vt 1.000000 1.000000
vt 0.000000 0.000000
vt 1.000000 0.000000
vt 1.000000 1.000000
vt 1.000000 1.000000
vt 1.000000 1.000000
vt 1.000000 1.000000
vt 1.000000 1.000000
vt 1.000000 0.000000
vt 1.000000 1.000000
vt 0.000000 0.000000
vt 1.000000 1.000000
vt 0.000000 0.000000
vt 1.000000 0.000000
vt 0.000000 0.000000
vt 1.000000 1.000000
vt 0.000000 0.000000
vt 1.000000 1.000000
vt 1.000000 1.000000
vt 0.000000 0.000000
vt 1.000000 0.000000
vt 0.000000 0.000000
vt 1.000000 1.000000
vt 0.000000 0.000000
vt 1.000000 1.000000
vt 0.000000 0.000000
vt 1.000000 1.000000
vt 0.000000 0.000000
vt 1.000000 1.000000
vt 1.000000 0.000000
vt 1.000000 1.000000
vt 1.000000 0.000000
vt 1.000000 0.000000
vt 1.000000 1.000000
vt 1.000000 1.000000
vt 1.000000 1.000000
vt 1.000000 1.000000
vt 1.000000 1.000000
vt 0.000000 0.000000
vt 1.000000 1.000000
vt 0.000000 0.000000
vt 1.000000 1.000000
vt 0.000000 0.000000
vt 1.000000 1.000000
vt 0.000000 0.000000
vt 1.000000 1.000000
vt 1.000000 0.000000
vt 1.000000 1.000000
vt 1.000000 0.000000
vt 0.000000 0.000000
vt 0.000000 0.000000
vt 1.000000 0.000000
vt 1.000000 1.000000
vt 1.000000 0.000000
vt 1.000000 1.000000
vt 1.000000 0.000000
vt 0.000000 0.000000
vt 1.000000 0.000000
vt 1.000000 1.000000
vt 1.000000 1.000000
vt 1.000000 1.000000
vt 1.000000 0.000000
vt 1.000000 0.000000
vt 0.000000 0.000000
vt 1.000000 0.000000
vt 1.000000 0.000000
vt 1.000000 0.000000
vt 1.000000 0.000000
vt 0.000000 0.000000
vt 1.000000 0.000000
vt 1.000000 0.000000
vt 1.000000 1.000000
vt 1.000000 0.000000
vt 1.000000 1.000000
vt 1.000000 0.000000
vt 1.000000 1.000000
vt 1.000000 0.000000
vt 1.000000 1.000000
vt 1.000000 0.000000
vt 1.000000 1.000000
vn 0.2268 0.6870 -0.6903
vn 0.1169 0.7148 -0.6895
vn 0.1169 0.7148 0.6895
vn 0.2268 0.6870 0.6903
vn 0.6804 0.2186 -0.6994
vn 0.6804 0.2186 0.6994
vn 0.6931 0.1725 0.6999
vn 0.6931 0.1725 -0.6999
vn 0.0000 0.7246 -0.6892
vn 0.0000 0.7246 0.6892
vn 0.6636 0.2666 -0.6989
vn 0.6636 0.2666 0.6989
vn -0.1169 0.7148 -0.6895
vn -0.1169 0.7148 0.6895
vn -0.2268 0.6870 0.6903
vn 0.3249 0.6452 0.6914
vn -0.3249 0.6452 0.6914
vn -0.4088 0.5941 0.6928
vn 0.4088 0.5941 0.6928
vn 0.4780 0.5382 0.6941
vn -0.4780 0.5382 0.6941
vn 0.5340 0.4808 0.6954
vn -0.5340 0.4808 0.6954
vn 0.5788 0.4242 0.6965
vn 0.6419 0.3168 -0.6983
vn 0.6419 0.3168 0.6983
vn -0.4088 -0.5941 -0.6928
vn -0.4088 -0.5941 0.6928
vn -0.4780 -0.5382 0.6941
vn -0.4780 -0.5382 -0.6941
vn 0.6141 0.3692 -0.6975
vn 0.6141 0.3692 0.6975
vn -0.2268 0.6870 -0.6903
vn -0.3249 -0.6452 -0.6914
vn -0.3249 -0.6452 0.6914
vn -0.3249 0.6452 -0.6914
vn 0.5788 0.4242 -0.6965
vn -0.4088 0.5941 -0.6928
vn -0.2268 -0.6870 -0.6903
vn -0.2268 -0.6870 0.6903
vn -0.6419 0.3168 0.6983
vn -0.6636 0.2666 0.6989
vn -0.6804 0.2186 0.6994
vn -0.6931 0.1725 0.6999
vn 0.7024 0.1281 0.7002
vn -0.7024 0.1281 0.7002
vn 0.7087 0.0847 0.7003
vn -0.7087 0.0847 0.7003
vn 0.7124 0.0421 0.7005
vn -0.4780 0.5382 -0.6941
vn 0.5340 0.4808 -0.6954
vn -0.5340 0.4808 -0.6954
vn 0.4780 0.5382 -0.6941
vn -0.6141 0.3692 -0.6975
vn -0.6419 0.3168 -0.6983
vn -0.6141 0.3692 0.6975
vn -0.5788 0.4242 -0.6965
vn -0.5788 0.4242 0.6965
vn -0.6636 0.2666 -0.6989
vn 0.4088 0.5941 -0.6928
vn -0.6804 0.2186 -0.6994
vn 0.3249 0.6452 -0.6914
vn -0.7124 0.0421 0.7005
vn -0.7136 0.0000 0.7006
vn 0.7136 0.0000 0.7006
vn -0.7124 -0.0421 0.7005
vn 0.7124 -0.0421 0.7005
vn -0.7087 -0.0847 0.7003
vn -0.7024 -0.1281 0.7002
vn 0.7087 -0.0847 0.7003
vn 0.7024 -0.1281 0.7002
vn -0.6931 0.1725 -0.6999
vn 0.7024 0.1281 -0.7002
vn 0.7087 0.0847 -0.7003
vn 0.7087 -0.0847 -0.7003
vn 0.7024 -0.1281 -0.7002
vn 0.7124 -0.0421 -0.7005
vn -0.7024 0.1281 -0.7002
vn 0.6804 -0.2186 0.6994
vn 0.6931 -0.1725 0.6999
vn -0.6931 -0.1725 0.6999
vn -0.6804 -0.2186 0.6994
vn 0.4780 -0.5382 0.6941
vn 0.5340 -0.4808 0.6954
vn -0.5340 -0.4808 0.6954
vn 0.5788 -0.4242 0.6965
vn -0.5788 -0.4242 0.6965
vn -0.6141 -0.3692 0.6975
vn 0.6141 -0.3692 0.6975
vn -0.6419 -0.3168 0.6983
vn 0.6419 -0.3168 0.6983
vn -0.6636 -0.2666 0.6989
vn 0.6636 -0.2666 0.6989
vn 0.7136 0.0000 -0.7006
vn 0.6931 -0.1725 -0.6999
vn -0.7087 0.0847 -0.7003
vn 0.7124 0.0421 -0.7005
vn -0.7124 0.0421 -0.7005
vn -0.1169 -0.7148 0.6895
vn -0.1169 -0.7148 -0.6895
vn -0.7136 0.0000 -0.7006
vn 0.0000 -0.7246 0.6892
vn 0.0000 -0.7246 -0.6892
vn 0.4088 -0.5941 0.6928
vn 0.3249 -0.6452 0.6914
vn 0.2268 -0.6870 0.6903
vn 0.1169 -0.7148 0.6895
vn -0.7124 -0.0421 -0.7005
vn -0.7087 -0.0847 -0.7003
vn -0.7024 -0.1281 -0.7002
vn -0.6931 -0.1725 -0.6999
vn -0.6804 -0.2186 -0.6994
vn -0.6636 -0.2666 -0.6989
vn 0.1169 -0.7148 -0.6895
vn -0.6419 -0.3168 -0.6983
vn 0.2268 -0.6870 -0.6903
vn -0.6141 -0.3692 -0.6975
vn 0.3249 -0.6452 -0.6914
vn -0.5788 -0.4242 -0.6965
vn 0.4088 -0.5941 -0.6928
vn 0.4780 -0.5382 -0.6941
vn -0.5340 -0.4808 -0.6954
vn 0.5340 -0.4808 -0.6954
vn 0.5788 -0.4242 -0.6965
vn 0.6141 -0.3692 -0.6975
vn 0.6419 -0.3168 -0.6983
vn 0.6636 -0.2666 -0.6989
vn 0.6804 -0.2186 -0.6994
usemtl color_16089887
s 1
f 1/1/1 2/2/2 3/3/3
f 1/1/1 3/4/3 4/5/4
f 5/6/5 6/7/6 7/8/7
f 5/6/5 7/9/7 8/10/8
f 2/11/2 9/12/9 10/13/10
f 2/11/2 10/14/10 3/3/3
f 11/15/11 12/16/12 6/17/6
f 11/15/11 6/7/6 5/18/5
f 9/19/9 13/20/13 14/21/14
f 9/19/9 14/22/14 10/13/10
f 10/23/10 14/22/14 3/3/3
f 4/24/4 3/4/3 14/21/14
f 14/25/14 15/26/15 4/5/4
f 16/27/16 4/28/4 15/29/15
f 15/30/15 17/31/17 16/32/16
f 17/33/17 18/34/18 16/32/16
f 19/35/19 16/36/16 18/37/18
f 20/38/20 19/39/19 18/37/18
f 18/40/18 21/41/21 20/42/20
f 22/43/22 20/44/20 21/45/21
f 21/46/21 23/47/23 22/48/22
f 24/49/24 22/50/22 23/51/23
f 25/52/25 26/53/26 12/54/12
f 25/52/25 12/16/12 11/55/11
f 27/56/27 28/57/28 29/58/29
f 27/56/27 29/59/29 30/60/30
f 31/61/31 32/62/32 26/63/26
f 31/61/31 26/53/26 25/64/25
f 15/30/15 14/22/14 33/65/33
f 13/66/13 33/67/33 14/21/14
f 34/68/34 35/69/35 28/70/28
f 34/68/34 28/57/28 27/71/27
f 33/72/33 36/73/36 17/74/17
f 33/72/33 17/31/17 15/29/15
f 37/75/37 24/76/24 32/77/32
f 37/75/37 32/62/32 31/78/31
f 36/79/36 38/80/38 18/37/18
f 36/79/36 18/34/18 17/74/17
f 39/81/39 40/82/40 35/83/35
f 39/81/39 35/69/35 34/84/34
f 12/85/12 26/53/26 41/86/41
f 41/87/41 42/88/42 12/54/12
f 6/89/6 12/16/12 42/90/42
f 42/91/42 43/92/43 6/17/6
f 7/93/7 6/7/6 43/94/43
f 43/95/43 44/96/44 7/8/7
f 45/97/45 7/9/7 44/98/44
f 44/99/44 46/100/46 45/101/45
f 47/102/47 45/103/45 46/104/46
f 46/105/46 48/106/48 47/107/47
f 49/108/49 47/109/47 48/110/48
f 38/111/38 50/112/50 21/45/21
f 38/111/38 21/41/21 18/37/18
f 51/113/51 22/50/22 24/114/24
f 51/113/51 24/76/24 37/115/37
f 50/116/50 52/117/52 23/51/23
f 50/116/50 23/47/23 21/45/21
f 51/113/51 53/118/53 20/42/20
f 51/113/51 20/44/20 22/48/22
f 54/119/54 55/120/55 41/86/41
f 54/119/54 41/121/41 56/122/56
f 52/123/52 57/124/57 58/125/58
f 52/123/52 58/126/58 23/51/23
f 55/127/55 59/128/59 42/90/42
f 55/127/55 42/88/42 41/86/41
f 53/129/53 60/130/60 19/131/19
f 53/129/53 19/39/19 20/42/20
f 57/132/57 54/133/54 56/122/56
f 57/132/57 56/134/56 58/125/58
f 59/135/59 61/136/61 43/94/43
f 59/135/59 43/92/43 42/90/42
f 60/137/60 62/138/62 16/32/16
f 60/137/60 16/36/16 19/131/19
f 32/139/32 24/76/24 58/125/58
f 58/140/58 56/134/56 32/77/32
f 23/141/23 58/126/58 24/114/24
f 26/142/26 32/62/32 56/122/56
f 56/143/56 41/121/41 26/63/26
f 48/144/48 63/145/63 49/146/49
f 63/147/63 64/148/64 49/146/49
f 65/149/65 49/150/49 64/151/64
f 66/152/66 67/153/67 64/151/64
f 68/154/68 67/153/67 66/155/66
f 69/156/69 70/157/70 68/158/68
f 71/159/71 70/157/70 69/160/69
f 67/161/67 68/162/68 70/163/70
f 65/149/65 64/148/64 67/164/67
f 61/165/61 72/166/72 44/98/44
f 61/165/61 44/96/44 43/94/43
f 62/167/62 1/168/1 4/5/4
f 62/167/62 4/28/4 16/32/16
f 72/169/72 46/100/46 44/98/44
f 73/170/73 45/103/45 47/107/47
f 73/170/73 47/109/47 74/171/74
f 73/170/73 8/172/8 45/101/45
f 7/93/7 45/103/45 8/10/8
f 75/173/75 70/157/70 71/174/71
f 75/173/75 71/175/71 76/176/76
f 77/177/77 67/153/67 70/163/70
f 77/177/77 70/157/70 75/178/75
f 72/169/72 78/179/78 46/104/46
f 79/180/79 80/181/80 81/182/81
f 69/156/69 81/183/81 80/184/80
f 71/159/71 69/185/69 80/184/80
f 81/186/81 82/187/82 79/188/79
f 83/189/83 84/190/84 85/191/85
f 84/192/84 86/193/86 87/194/87
f 88/195/88 87/196/87 86/197/86
f 86/198/86 89/199/89 88/200/88
f 90/201/90 88/202/88 89/203/89
f 89/204/89 91/205/91 90/206/90
f 87/207/87 85/208/85 84/209/84
f 92/210/92 90/211/90 91/212/91
f 91/213/91 93/214/93 92/215/92
f 82/216/82 92/217/92 93/218/93
f 93/219/93 79/220/79 82/221/82
f 94/222/94 65/223/65 67/164/67
f 94/222/94 67/153/67 77/224/77
f 71/159/71 80/181/80 95/225/95
f 71/159/71 95/226/95 76/176/76
f 78/227/78 96/228/96 48/110/48
f 78/227/78 48/106/48 46/104/46
f 97/229/97 49/150/49 65/230/65
f 97/229/97 65/223/65 94/231/94
f 96/232/96 98/233/98 63/234/63
f 96/232/96 63/145/63 48/110/48
f 40/235/40 39/236/39 99/237/99
f 100/238/100 99/239/99 39/240/39
f 74/241/74 47/109/47 49/146/49
f 74/241/74 49/150/49 97/242/97
f 98/243/98 101/244/101 64/151/64
f 98/243/98 64/148/64 63/234/63
f 102/245/102 99/239/99 100/246/100
f 102/245/102 100/247/100 103/248/103
f 29/249/29 28/57/28 83/250/83
f 85/251/85 29/59/29 83/250/83
f 104/252/104 83/253/83 28/70/28
f 105/254/105 104/255/104 28/70/28
f 28/256/28 35/69/35 105/257/105
f 106/258/106 105/259/105 35/83/35
f 35/260/35 40/82/40 106/261/106
f 107/262/107 106/263/106 40/264/40
f 40/235/40 99/239/99 107/265/107
f 102/245/102 107/266/107 99/237/99
f 64/267/64 101/244/101 108/268/108
f 64/267/64 108/269/108 66/155/66
f 108/270/108 109/271/109 68/158/68
f 108/270/108 68/162/68 66/155/66
f 109/272/109 110/273/110 69/160/69
f 109/272/109 69/185/69 68/158/68
f 111/274/111 112/275/112 82/221/82
f 111/274/111 82/187/82 81/182/81
f 81/186/81 69/185/69 111/276/111
f 110/277/110 111/278/111 69/160/69
f 112/279/112 113/280/113 92/215/92
f 112/279/112 92/217/92 82/221/82
f 114/281/114 107/266/107 102/282/102
f 114/281/114 102/283/102 103/248/103
f 113/284/113 115/285/115 90/206/90
f 113/284/113 90/211/90 92/215/92
f 116/286/116 106/263/106 107/265/107
f 116/286/116 107/266/107 114/287/114
f 115/288/115 117/289/117 88/200/88
f 115/288/115 88/202/88 90/206/90
f 9/19/9 2/2/2 13/290/13
f 2/11/2 1/168/1 13/290/13
f 62/167/62 33/67/33 1/291/1
f 60/137/60 38/80/38 62/292/62
f 53/129/53 38/80/38 60/293/60
f 51/113/51 50/112/50 53/294/53
f 37/75/37 31/295/31 54/296/54
f 55/127/55 54/133/54 31/78/31
f 25/52/25 55/120/55 31/78/31
f 11/15/11 55/120/55 25/64/25
f 5/6/5 59/128/59 11/55/11
f 118/297/118 105/259/105 106/261/106
f 118/297/118 106/263/106 116/298/116
f 117/299/117 119/300/119 87/194/87
f 117/299/117 87/196/87 88/200/88
f 120/301/120 104/255/104 105/257/105
f 120/301/120 105/259/105 118/302/118
f 121/303/121 83/253/83 104/304/104
f 121/303/121 104/255/104 120/305/120
f 119/306/119 122/307/122 85/191/85
f 119/306/119 85/208/85 87/194/87
f 123/308/123 84/190/84 83/250/83
f 123/308/123 83/253/83 121/309/121
f 30/310/30 29/59/29 85/191/85
f 30/310/30 85/208/85 122/311/122
f 124/312/124 86/193/86 84/209/84
f 124/312/124 84/190/84 123/313/123
f 125/314/125 89/199/89 86/197/86
f 125/314/125 86/193/86 124/315/124
f 52/123/52 51/316/51 57/317/57
f 51/113/51 37/318/37 57/317/57
f 54/119/54 57/124/57 37/115/37
f 55/127/55 11/319/11 59/320/59
f 61/165/61 59/128/59 5/18/5
f 50/116/50 51/316/51 52/321/52
f 38/111/38 53/118/53 50/322/50
f 36/79/36 62/138/62 38/323/38
f 33/72/33 62/138/62 36/324/36
f 13/66/13 1/168/1 33/65/33
f 72/169/72 61/136/61 5/18/5
f 126/325/126 91/205/91 89/203/89
f 126/325/126 89/199/89 125/326/125
f 127/327/127 93/214/93 91/212/91
f 127/327/127 91/205/91 126/328/126
f 128/329/128 79/220/79 93/218/93
f 128/329/128 93/214/93 127/330/127
f 95/331/95 80/181/80 79/188/79
f 95/331/95 79/220/79 128/332/128
f 97/229/97 94/333/94 101/334/101
f 94/222/94 77/335/77 101/334/101
f 108/270/108 101/244/101 77/224/77
f 109/272/109 108/269/108 77/224/77
f 75/173/75 109/271/109 77/224/77
f 76/336/76 109/271/109 75/178/75
f 101/337/101 98/233/98 97/242/97
f 109/272/109 76/338/76 110/339/110
f 98/243/98 96/228/96 97/242/97
f 74/241/74 97/340/97 96/341/96
f 73/170/73 74/342/74 96/341/96
f 8/343/8 73/344/73 78/345/78
f 78/227/78 72/166/72 8/10/8
f 5/6/5 8/172/8 72/346/72
f 96/232/96 78/179/78 73/347/73
f 120/301/120 27/348/27 121/309/121
f 121/303/121 122/307/122 123/313/123
f 123/308/123 119/300/119 124/315/124
f 124/312/124 117/289/117 125/326/125
f 125/314/125 115/285/115 126/328/126
f 126/325/126 113/280/113 127/330/127
f 127/327/127 112/275/112 128/332/128
f 128/329/128 111/278/111 95/225/95
f 118/297/118 27/348/27 120/305/120
f 116/286/116 34/349/34 118/302/118
f 114/281/114 39/236/39 116/298/116
f 103/350/103 100/247/100 114/287/114
f 39/81/39 114/351/114 100/246/100
f 34/68/34 116/352/116 39/240/39
f 95/331/95 110/273/110 76/176/76
f 27/56/27 118/353/118 34/84/34
f 30/310/30 121/354/121 27/71/27
f 122/355/122 121/354/121 30/60/30
f 119/306/119 123/356/123 122/311/122
f 117/299/117 124/357/124 119/358/119
f 115/288/115 125/359/125 117/360/117
f 113/284/113 126/361/126 115/362/115
f 112/279/112 127/363/127 113/364/113
f 111/274/111 128/365/128 112/366/112
f 110/277/110 95/226/95 111/276/111
